ply
format ascii 1.0
comment VCGLIB generated
element vertex 96
property float x
property float y
property float z
element face 192
property list uchar int vertex_indices
end_header
198.8658 -7.472913e-06 170.9603 
236.3374 -22.81251 113.6647 
236.3374 -4.968443e-06 113.6647 
198.8658 -22.81251 170.9603 
147.8419 -22.81251 216.6053 
147.8419 -9.468117e-06 216.6053 
86.74271 -22.81251 247.4889 
86.74271 -1.081808e-05 247.4889 
19.73219 -22.81251 261.5066 
19.73219 -1.143082e-05 261.5066 
-48.62305 -22.81251 257.703 
-48.62305 -1.126456e-05 257.703 
-113.6647 -22.81251 236.3375 
-113.6647 -1.033064e-05 236.3375 
-170.9603 -22.81251 198.8659 
-170.9603 -8.692703e-06 198.8659 
-216.6053 -6.462374e-06 147.8419 
-216.6053 -22.81251 147.8419 
-247.4889 -3.791645e-06 86.74272 
-247.4889 -22.8125 86.74272 
-261.5066 -8.625216e-07 19.73219 
-261.5066 -22.8125 19.73219 
-257.703 2.125381e-06 -48.62305 
-257.703 -22.8125 -48.62305 
-236.3374 4.968443e-06 -113.6647 
-236.3374 -22.81249 -113.6647 
-198.8658 7.472913e-06 -170.9603 
-198.8658 -22.81249 -170.9603 
-147.8419 -22.81249 -216.6053 
-147.8419 9.468117e-06 -216.6053 
-86.74271 -22.81249 -247.4889 
-86.74271 1.081808e-05 -247.4889 
-19.73219 -22.81249 -261.5066 
-19.73219 1.143082e-05 -261.5066 
48.62305 -22.81249 -257.703 
48.62305 1.126456e-05 -257.703 
113.6647 -22.81249 -236.3375 
113.6647 1.033064e-05 -236.3375 
170.9603 -22.81249 -198.8659 
170.9603 8.692703e-06 -198.8659 
216.6053 6.462374e-06 -147.8419 
216.6053 -22.81249 -147.8419 
247.4889 3.791645e-06 -86.74272 
247.4889 -22.8125 -86.74272 
261.5066 8.625216e-07 -19.73219 
261.5066 -22.8125 -19.73219 
257.703 -2.125381e-06 48.62305 
257.703 -22.8125 48.62305 
10.6875 4.852939e-24 -1.110223e-16 
10.32333 -22.8125 -2.766129 
10.32333 1.209113e-07 -2.766129 
10.6875 -22.8125 -9.97166e-07 
9.255646 -22.8125 -5.343751 
9.255646 2.335827e-07 -5.34375 
7.557203 -22.8125 -7.557205 
7.557203 3.303359e-07 -7.557204 
5.34375 4.045772e-07 -9.255647 
5.34375 -22.8125 -9.255648 
2.766128 4.512472e-07 -10.32333 
2.766128 -22.8125 -10.32333 
6.661338e-16 4.671654e-07 -10.6875 
6.661338e-16 -22.8125 -10.6875 
-2.766128 4.512472e-07 -10.32333 
-2.766128 -22.8125 -10.32333 
-5.34375 4.045772e-07 -9.255647 
-5.34375 -22.8125 -9.255648 
-7.557203 3.303359e-07 -7.557204 
-7.557203 -22.8125 -7.557205 
-9.255646 -22.8125 -5.343751 
-9.255646 2.335827e-07 -5.34375 
-10.32333 -22.8125 -2.766129 
-10.32333 1.209113e-07 -2.766129 
-10.6875 -22.8125 -9.97166e-07 
-10.6875 5.823526e-23 -1.332268e-15 
-10.32333 -22.8125 2.766128 
-10.32333 -1.209113e-07 2.766129 
-9.255646 -22.8125 5.343749 
-9.255646 -2.335827e-07 5.34375 
-7.557203 -22.8125 7.557203 
-7.557203 -3.303359e-07 7.557204 
-5.34375 -4.045772e-07 9.255647 
-5.34375 -22.8125 9.255646 
-2.766128 -4.512472e-07 10.32333 
-2.766128 -22.8125 10.32333 
-1.776357e-15 -4.671654e-07 10.6875 
-1.776357e-15 -22.8125 10.6875 
2.766128 -4.512472e-07 10.32333 
2.766128 -22.8125 10.32333 
5.34375 -4.045772e-07 9.255647 
5.34375 -22.8125 9.255646 
7.557203 -3.303359e-07 7.557204 
7.557203 -22.8125 7.557203 
9.255646 -22.8125 5.343749 
9.255646 -2.335827e-07 5.34375 
10.32333 -22.8125 2.766128 
10.32333 -1.209113e-07 2.766129 
3 0 1 2 
3 1 0 3 
3 4 0 5 
3 0 4 3 
3 6 5 7 
3 5 6 4 
3 8 7 9 
3 7 8 6 
3 10 9 11 
3 9 10 8 
3 12 11 13 
3 11 12 10 
3 14 13 15 
3 13 14 12 
3 14 16 17 
3 16 14 15 
3 17 18 19 
3 18 17 16 
3 19 20 21 
3 20 19 18 
3 21 22 23 
3 22 21 20 
3 23 24 25 
3 24 23 22 
3 25 26 27 
3 26 25 24 
3 28 26 29 
3 26 28 27 
3 30 29 31 
3 29 30 28 
3 32 31 33 
3 31 32 30 
3 34 33 35 
3 33 34 32 
3 36 35 37 
3 35 36 34 
3 38 37 39 
3 37 38 36 
3 40 38 39 
3 38 40 41 
3 42 41 40 
3 41 42 43 
3 44 43 42 
3 43 44 45 
3 46 45 44 
3 45 46 47 
3 2 47 46 
3 47 2 1 
3 48 49 50 
3 49 48 51 
3 50 52 53 
3 52 50 49 
3 53 54 55 
3 54 53 52 
3 54 56 55 
3 56 54 57 
3 57 58 56 
3 58 57 59 
3 59 60 58 
3 60 59 61 
3 61 62 60 
3 62 61 63 
3 63 64 62 
3 64 63 65 
3 65 66 64 
3 66 65 67 
3 68 66 67 
3 66 68 69 
3 70 69 68 
3 69 70 71 
3 72 71 70 
3 71 72 73 
3 74 73 72 
3 73 74 75 
3 76 75 74 
3 75 76 77 
3 78 77 76 
3 77 78 79 
3 78 80 79 
3 80 78 81 
3 81 82 80 
3 82 81 83 
3 83 84 82 
3 84 83 85 
3 85 86 84 
3 86 85 87 
3 87 88 86 
3 88 87 89 
3 89 90 88 
3 90 89 91 
3 90 92 93 
3 92 90 91 
3 93 94 95 
3 94 93 92 
3 95 51 48 
3 51 95 94 
3 32 70 72 
3 70 32 34 
3 70 34 68 
3 68 34 67 
3 67 34 65 
3 65 34 63 
3 63 34 61 
3 61 34 59 
3 59 34 57 
3 57 34 54 
3 54 34 52 
3 52 34 49 
3 49 34 51 
3 51 34 8 
3 8 34 6 
3 6 34 36 
3 6 36 4 
3 4 36 38 
3 4 38 3 
3 3 38 41 
3 3 41 1 
3 1 41 43 
3 1 43 47 
3 47 43 45 
3 23 19 21 
3 19 23 25 
3 19 25 17 
3 17 25 27 
3 17 27 14 
3 14 27 28 
3 14 28 12 
3 12 28 30 
3 12 30 10 
3 10 30 32 
3 10 32 72 
3 10 72 8 
3 8 72 74 
3 8 74 76 
3 8 76 78 
3 8 78 81 
3 8 81 83 
3 8 83 85 
3 8 85 87 
3 8 87 89 
3 8 89 91 
3 8 91 92 
3 8 92 94 
3 8 94 51 
3 18 22 20 
3 22 18 24 
3 24 18 16 
3 24 16 26 
3 26 16 15 
3 26 15 29 
3 29 15 13 
3 29 13 31 
3 31 13 11 
3 31 11 33 
3 33 11 73 
3 73 11 9 
3 73 9 75 
3 75 9 77 
3 77 9 79 
3 79 9 80 
3 80 9 82 
3 82 9 84 
3 84 9 86 
3 86 9 88 
3 88 9 90 
3 90 9 93 
3 93 9 95 
3 95 9 48 
3 33 71 35 
3 71 33 73 
3 35 71 69 
3 35 69 66 
3 35 66 64 
3 35 64 62 
3 35 62 60 
3 35 60 58 
3 35 58 56 
3 35 56 55 
3 35 55 53 
3 35 53 50 
3 35 50 48 
3 35 48 9 
3 35 9 7 
3 35 7 37 
3 37 7 5 
3 37 5 39 
3 39 5 0 
3 39 0 40 
3 40 0 2 
3 40 2 42 
3 42 2 46 
3 42 46 44 
