ply
format ascii 1.0
comment VCGLIB generated
element vertex 120
property float x
property float y
property float z
element face 262
property list uchar int vertex_indices
end_header
-247.4889 1.144409e-05 -36.74272 
-257.7029 -6.198883e-06 98.62305 
-261.5065 2.384186e-06 30.26781 
-236.3374 -1.478195e-05 163.6647 
-216.6052 1.955032e-05 -97.84189 
-198.8658 -2.241135e-05 220.9603 
-170.9603 2.622604e-05 -148.8659 
-147.8418 -2.861023e-05 266.6053 
-113.6647 3.099442e-05 -186.3375 
-86.7427 -3.242493e-05 297.4889 
-48.62304 3.385544e-05 -207.703 
-19.73219 -3.433228e-05 311.5066 
-10.6875 0 50 
19.73219 3.433228e-05 -211.5066 
-10.32333 4.768372e-07 47.23387 
-9.255644 4.768372e-07 44.65625 
-7.557202 9.536743e-07 42.44279 
-5.343749 1.430511e-06 40.74435 
-2.766128 1.430511e-06 39.67667 
0 1.430511e-06 39.3125 
2.766128 1.430511e-06 39.67667 
5.343748 1.430511e-06 40.74435 
7.557202 9.536743e-07 42.44279 
9.255644 4.768372e-07 44.65625 
10.32333 4.768372e-07 47.23387 
10.6875 0 50 
-10.32333 -4.768372e-07 52.76613 
48.62304 -3.385544e-05 307.703 
-9.255644 -4.768372e-07 55.34375 
-7.557202 -9.536743e-07 57.55721 
-5.343749 -1.430511e-06 59.25565 
-2.766128 -1.430511e-06 60.32333 
0 -1.430511e-06 60.6875 
2.766128 -1.430511e-06 60.32333 
5.343748 -1.430511e-06 59.25565 
7.557202 -9.536743e-07 57.55721 
9.255644 -4.768372e-07 55.34375 
10.32333 -4.768372e-07 52.76613 
86.7427 3.242493e-05 -197.4889 
113.6647 -3.099442e-05 286.3375 
147.8418 2.861023e-05 -166.6053 
170.9603 -2.622604e-05 248.8659 
198.8658 2.241135e-05 -120.9603 
216.6052 -1.955032e-05 197.8419 
236.3374 1.478195e-05 -63.66472 
247.4889 -1.144409e-05 136.7427 
257.7029 6.198883e-06 1.376945 
261.5065 -2.384186e-06 69.73219 
-19.73219 22.81247 311.5066 
-10.32333 22.8125 52.76613 
-10.6875 22.8125 50 
48.62304 22.81247 307.703 
-9.255644 22.8125 55.34375 
-7.557202 22.8125 57.55721 
-5.343749 22.8125 59.25565 
-2.766128 22.8125 60.32333 
0 22.8125 60.6875 
2.766128 22.8125 60.32333 
5.343748 22.8125 59.25565 
7.557202 22.8125 57.55721 
9.255644 22.8125 55.34375 
10.32333 22.8125 52.76613 
10.6875 22.8125 50 
19.73219 22.81253 -211.5066 
86.7427 22.81253 -197.4889 
113.6647 22.81247 286.3375 
147.8418 22.81253 -166.6053 
170.9603 22.81247 248.8659 
198.8658 22.81252 -120.9603 
216.6052 22.81248 197.8419 
236.3374 22.81252 -63.66472 
247.4889 22.81249 136.7427 
257.7029 22.81251 1.376945 
261.5065 22.8125 69.7322 
-257.7029 22.81249 98.62305 
-247.4889 22.81251 -36.74272 
-261.5065 22.8125 30.26781 
-236.3374 22.81248 163.6647 
-216.6052 22.81252 -97.84189 
-198.8658 22.81248 220.9603 
-170.9603 22.81253 -148.8659 
-147.8418 22.81247 266.6053 
-113.6647 22.81253 -186.3375 
-86.7427 22.81247 297.4889 
-48.62304 22.81253 -207.703 
-10.32333 22.8125 47.23388 
-9.255644 22.8125 44.65625 
-7.557202 22.8125 42.4428 
-5.343749 22.8125 40.74435 
-2.766128 22.8125 39.67667 
0 22.8125 39.3125 
2.766128 22.8125 39.67667 
5.343748 22.8125 40.74435 
7.557202 22.8125 42.4428 
9.255644 22.8125 44.65625 
10.32333 22.8125 47.23388 
-10.32333 102 52.76614 
-10.32333 102 47.23389 
-10.6875 102 50.00002 
-9.255644 102 44.65627 
-9.255644 102 55.34377 
-7.557202 102 42.44281 
-7.557202 102 57.55722 
-5.343749 102 40.74437 
-5.343749 102 59.25566 
-2.766128 102 39.67668 
-2.766128 102 60.32335 
0 102 39.31252 
0 102 60.68752 
2.766128 102 39.67668 
2.766128 102 60.32335 
5.343748 102 40.74437 
5.343748 102 59.25566 
7.557202 102 42.44281 
7.557202 102 57.55722 
9.255644 102 44.65627 
9.255644 102 55.34377 
10.32333 102 47.23389 
10.32333 102 52.76614 
10.6875 102 50.00002 
3 0 1 2 
3 1 0 3 
3 3 0 4 
3 3 4 5 
3 5 4 6 
3 5 6 7 
3 7 6 8 
3 7 8 9 
3 9 8 10 
3 9 10 11 
3 11 10 12 
3 12 10 13 
3 12 13 14 
3 14 13 15 
3 15 13 16 
3 16 13 17 
3 17 13 18 
3 18 13 19 
3 19 13 20 
3 20 13 21 
3 21 13 22 
3 22 13 23 
3 23 13 24 
3 24 13 25 
3 11 26 27 
3 26 11 12 
3 27 26 28 
3 27 28 29 
3 27 29 30 
3 27 30 31 
3 27 31 32 
3 27 32 33 
3 27 33 34 
3 27 34 35 
3 27 35 36 
3 27 36 37 
3 27 37 25 
3 27 25 13 
3 27 13 38 
3 27 38 39 
3 39 38 40 
3 39 40 41 
3 41 40 42 
3 41 42 43 
3 43 42 44 
3 43 44 45 
3 45 44 46 
3 45 46 47 
3 48 49 50 
3 49 48 51 
3 49 51 52 
3 52 51 53 
3 53 51 54 
3 54 51 55 
3 55 51 56 
3 56 51 57 
3 57 51 58 
3 58 51 59 
3 59 51 60 
3 60 51 61 
3 61 51 62 
3 62 51 63 
3 63 51 64 
3 64 51 65 
3 64 65 66 
3 66 65 67 
3 66 67 68 
3 68 67 69 
3 68 69 70 
3 70 69 71 
3 70 71 72 
3 72 71 73 
3 74 75 76 
3 75 74 77 
3 75 77 78 
3 78 77 79 
3 78 79 80 
3 80 79 81 
3 80 81 82 
3 82 81 83 
3 82 83 84 
3 84 83 48 
3 84 48 50 
3 84 50 63 
3 63 50 85 
3 63 85 86 
3 63 86 87 
3 63 87 88 
3 63 88 89 
3 63 89 90 
3 63 90 91 
3 63 91 92 
3 63 92 93 
3 63 93 94 
3 63 94 95 
3 63 95 62 
3 42 70 44 
3 70 42 68 
3 66 42 40 
3 42 66 68 
3 64 40 38 
3 40 64 66 
3 63 38 13 
3 38 63 64 
3 84 13 10 
3 13 84 63 
3 82 10 8 
3 10 82 84 
3 80 8 6 
3 8 80 82 
3 80 4 78 
3 4 80 6 
3 78 0 75 
3 0 78 4 
3 75 2 76 
3 2 75 0 
3 76 1 74 
3 1 76 2 
3 74 3 77 
3 3 74 1 
3 77 5 79 
3 5 77 3 
3 81 5 7 
3 5 81 79 
3 83 7 9 
3 7 83 81 
3 48 9 11 
3 9 48 83 
3 51 11 27 
3 11 51 48 
3 65 27 39 
3 27 65 51 
3 67 39 41 
3 39 67 65 
3 43 67 41 
3 67 43 69 
3 45 69 43 
3 69 45 71 
3 47 71 45 
3 71 47 73 
3 46 73 47 
3 73 46 72 
3 44 72 46 
3 72 44 70 
3 25 61 37 
3 61 25 62 
3 37 60 36 
3 60 37 61 
3 36 59 35 
3 59 36 60 
3 59 34 35 
3 34 59 58 
3 58 33 34 
3 33 58 57 
3 57 32 33 
3 32 57 56 
3 56 31 32 
3 31 56 55 
3 55 30 31 
3 30 55 54 
3 54 29 30 
3 29 54 53 
3 52 29 53 
3 29 52 28 
3 49 28 52 
3 28 49 26 
3 50 26 49 
3 26 50 12 
3 85 12 50 
3 12 85 14 
3 86 14 85 
3 14 86 15 
3 87 15 86 
3 15 87 16 
3 87 17 16 
3 17 87 88 
3 88 18 17 
3 18 88 89 
3 89 19 18 
3 19 89 90 
3 90 20 19 
3 20 90 91 
3 91 21 20 
3 21 91 92 
3 92 22 21 
3 22 92 93 
3 22 94 23 
3 94 22 93 
3 23 95 24 
3 95 23 94 
3 24 62 25 
3 62 24 95 
3 96 97 98 
3 97 96 99 
3 99 96 100 
3 99 100 101 
3 101 100 102 
3 101 102 103 
3 103 102 104 
3 103 104 105 
3 105 104 106 
3 105 106 107 
3 107 106 108 
3 107 108 109 
3 109 108 110 
3 109 110 111 
3 111 110 112 
3 111 112 113 
3 113 112 114 
3 113 114 115 
3 115 114 116 
3 115 116 117 
3 117 116 118 
3 117 118 119 
3 62 118 61 
3 118 62 119 
3 95 119 62 
3 119 95 117 
3 94 117 95 
3 117 94 115 
3 93 115 94 
3 115 93 113 
3 111 93 92 
3 93 111 113 
3 109 92 91 
3 92 109 111 
3 107 91 90 
3 91 107 109 
3 105 90 89 
3 90 105 107 
3 103 89 88 
3 89 103 105 
3 101 88 87 
3 88 101 103 
3 101 86 99 
3 86 101 87 
3 99 85 97 
3 85 99 86 
3 97 50 98 
3 50 97 85 
3 98 49 96 
3 49 98 50 
3 96 52 100 
3 52 96 49 
3 100 53 102 
3 53 100 52 
3 104 53 54 
3 53 104 102 
3 106 54 55 
3 54 106 104 
3 108 55 56 
3 55 108 106 
3 110 56 57 
3 56 110 108 
3 112 57 58 
3 57 112 110 
3 114 58 59 
3 58 114 112 
3 60 114 59 
3 114 60 116 
3 61 116 60 
3 116 61 118 
