ply
format ascii 1.0
comment VCGLIB generated
element vertex 140
property float x
property float y
property float z
element face 270
property list uchar int vertex_indices
end_header
0.04718044 -95.01445 -19.98463 
17.31352 -95.01447 9.921611 
17.31352 -95.01445 -10.01587 
0.04713988 -95.01447 19.89033 
-17.2192 -95.01447 -10.01591 
-17.2192 -95.01448 9.921568 
-23.21173 -54.57322 -13.45751 
0.03669292 -84.13564 -26.87996 
-23.21172 -84.13564 -13.45752 
0.03668148 -54.57321 -26.87995 
23.28504 -54.57321 13.38745 
0.03664275 -84.13565 26.80988 
23.28505 -84.13564 13.38744 
0.03662749 -54.57321 26.80989 
1.991584 -22.36604 0.5280339 
1.991584 -22.36604 -0.5361958 
2.061641 -22.36604 -0.004080415 
1.786197 -22.36604 -1.032049 
1.786197 -22.36604 1.023888 
1.459472 -22.36604 -1.457845 
1.459468 -22.36604 1.449686 
1.033675 -22.36604 -1.784575 
1.033672 -22.36604 1.776411 
0.5378215 -22.36604 -1.989964 
0.5378182 -22.36604 1.981798 
0.00570558 -22.36604 -2.060019 
0.005702302 -22.36604 2.051853 
-0.5264103 -22.36604 -1.989964 
-0.5264136 -22.36604 1.981798 
-1.02226 -22.36604 -1.784575 
-1.022267 -22.36604 1.776411 
-1.44806 -22.36604 -1.457851 
-1.448063 -22.36604 1.449681 
-1.774789 -22.36604 -1.032052 
-1.774789 -22.36604 1.023883 
-1.980176 -22.36604 -0.5361997 
-1.980176 -22.36604 0.5280314 
-2.050229 -22.36604 -0.004084557 
1.991611 -84.13564 -0.5362144 
1.78622 -84.13564 -1.032068 
2.061664 -84.13564 -0.004099309 
1.991611 -84.13564 0.5280151 
1.78622 -84.13564 1.023869 
1.459491 -84.13564 1.449667 
1.033695 -84.13564 1.776392 
0.5378411 -84.13564 1.981779 
0.00572519 -84.13564 2.051834 
-0.5263869 -84.13564 1.981779 
-1.022244 -84.13564 1.776391 
-1.448041 -84.13564 1.449662 
-1.774766 -84.13564 1.023864 
-1.980153 -84.13564 0.5280126 
-2.050206 -84.13564 -0.004103452 
-1.980153 -84.13564 -0.5362188 
-1.774766 -84.13564 -1.032071 
-1.448033 -84.13564 -1.45787 
-1.022237 -84.13564 -1.784594 
-0.5263875 -84.13564 -1.989983 
0.005728468 -84.13564 -2.060037 
0.5378444 -84.13564 -1.989983 
1.033698 -84.13564 -1.784594 
1.459498 -84.13564 -1.457864 
-23.21172 -84.13565 13.3874 
-23.21173 -54.57322 13.38741 
23.28506 -84.13562 -13.45748 
23.28505 -54.57321 -13.45747 
28.80297 -21.99999 9.376398 
29.67607 -21.99999 -6.322567 
30.27292 -21.99999 1.584392 
27.05309 -21.99999 -13.80565 
25.36637 -21.99999 16.52248 
24.81789 -21.99999 -17.08022 
20.19729 -21.99999 22.53556 
22.58271 -21.99999 -20.35482 
16.56963 -21.99999 -25.5239 
16.92269 -21.99999 24.77074 
13.64812 -21.99999 27.00593 
9.423565 -21.99999 -28.96049 
6.165042 -21.99999 29.62892 
1.631553 -21.99999 -30.43045 
-1.741921 -21.99999 30.22578 
-6.275415 -21.99999 -29.8336 
-9.53393 -21.99999 28.75581 
-13.75849 -21.99999 -27.21061 
-16.68001 -21.99999 25.31921 
-17.03307 -21.99999 -24.97542 
-22.69308 -21.99999 20.15015 
-20.30768 -21.99999 -22.74023 
-25.47675 -21.99999 -16.72716 
-24.92827 -21.99999 16.87553 
-27.16346 -21.99999 13.60096 
-28.91335 -21.99999 -9.581094 
-29.78645 -21.99999 6.117881 
-30.3833 -21.99999 -1.78908 
27.05309 -16.24999 -13.80564 
24.81789 -16.24999 -17.08022 
22.58271 -16.24999 -20.35482 
16.56963 -16.24999 -25.5239 
9.423553 -16.24999 -28.96049 
1.631553 -16.24999 -30.43045 
-6.275415 -16.24999 -29.8336 
0.188857 -16.24999 -30.32155 
-13.7585 -16.24999 -27.21061 
-17.03307 -16.24999 -24.97542 
-20.30768 -16.24999 -22.74023 
-25.47675 -16.24999 -16.72716 
-28.91335 -16.24999 -9.581088 
-30.3833 -16.24999 -1.789079 
-29.78645 -16.24999 6.117881 
-27.16346 -16.24999 13.60097 
-24.92827 -16.24999 16.87553 
-22.69308 -16.24999 20.15015 
-16.68001 -16.24999 25.31921 
-9.533937 -16.24999 28.75582 
-1.741925 -16.24999 30.22578 
6.165042 -16.24999 29.62892 
0.1888 -16.24999 30.08004 
13.64811 -16.24999 27.00593 
16.92269 -16.24999 24.77074 
20.19729 -16.24999 22.53556 
25.36637 -16.24999 16.52248 
28.80297 -16.24999 9.376406 
30.27292 -16.24999 1.584393 
29.67607 -16.24999 -6.322567 
1.626343 -16.24999 -20.00053 
-1.248653 -16.24999 -20.00053 
-1.248657 -16.24999 -17.12553 
-1.436187 -16.24999 16.69651 
-1.43619 -16.24999 19.94651 
1.813806 -16.24999 19.94651 
1.81381 -16.24999 16.69651 
1.626343 -16.24999 -17.12553 
-1.248661 3.814695e-06 -20.00053 
1.626332 3.814695e-06 -17.12553 
1.626336 3.814695e-06 -20.00053 
-1.248664 3.814695e-06 -17.12553 
-1.436198 -0.1249962 16.69651 
1.813799 -0.1249962 19.94651 
1.813802 -0.1249962 16.69651 
-1.436198 -0.1249962 19.94651 
3 0 1 2 
3 1 0 3 
3 3 0 4 
3 3 4 5 
3 6 7 8 
3 7 6 9 
3 10 11 12 
3 11 10 13 
3 7 4 0 
3 4 7 8 
3 14 15 16 
3 15 14 17 
3 17 14 18 
3 17 18 19 
3 19 18 20 
3 19 20 21 
3 21 20 22 
3 21 22 23 
3 23 22 24 
3 23 24 25 
3 25 24 26 
3 25 26 27 
3 27 26 28 
3 27 28 29 
3 29 28 30 
3 29 30 31 
3 31 30 32 
3 31 32 33 
3 33 32 34 
3 33 34 35 
3 35 34 36 
3 35 36 37 
3 38 17 39 
3 17 38 15 
3 40 15 38 
3 15 40 16 
3 41 16 40 
3 16 41 14 
3 42 14 41 
3 14 42 18 
3 43 18 42 
3 18 43 20 
3 22 43 44 
3 43 22 20 
3 24 44 45 
3 44 24 22 
3 26 45 46 
3 45 26 24 
3 28 46 47 
3 46 28 26 
3 30 47 48 
3 47 30 28 
3 32 48 49 
3 48 32 30 
3 32 50 34 
3 50 32 49 
3 34 51 36 
3 51 34 50 
3 36 52 37 
3 52 36 51 
3 37 53 35 
3 53 37 52 
3 35 54 33 
3 54 35 53 
3 33 55 31 
3 55 33 54 
3 29 55 56 
3 55 29 31 
3 27 56 57 
3 56 27 29 
3 25 57 58 
3 57 25 27 
3 23 58 59 
3 58 23 25 
3 21 59 60 
3 59 21 23 
3 19 60 61 
3 60 19 21 
3 39 19 61 
3 19 39 17 
3 11 1 3 
3 1 11 12 
3 13 62 11 
3 62 13 63 
3 62 4 8 
3 4 62 5 
3 2 12 64 
3 12 2 1 
3 62 6 8 
3 6 62 63 
3 9 64 7 
3 64 9 65 
3 62 3 5 
3 3 62 11 
3 64 0 2 
3 0 64 7 
3 11 40 12 
3 40 11 41 
3 41 11 42 
3 42 11 43 
3 43 11 44 
3 44 11 45 
3 45 11 46 
3 46 11 62 
3 46 62 47 
3 47 62 48 
3 48 62 49 
3 49 62 50 
3 50 62 51 
3 51 62 52 
3 52 62 8 
3 12 7 64 
3 7 12 40 
3 7 40 38 
3 7 38 39 
3 7 39 61 
3 7 61 60 
3 7 60 59 
3 7 59 58 
3 7 58 8 
3 8 58 57 
3 8 57 56 
3 8 56 55 
3 8 55 54 
3 8 54 53 
3 8 53 52 
3 66 67 68 
3 67 66 69 
3 69 66 70 
3 69 70 71 
3 71 70 72 
3 71 72 73 
3 73 72 74 
3 74 72 75 
3 74 75 76 
3 74 76 77 
3 77 76 78 
3 77 78 79 
3 79 78 80 
3 79 80 81 
3 81 80 82 
3 81 82 83 
3 83 82 84 
3 83 84 85 
3 85 84 86 
3 85 86 87 
3 87 86 88 
3 88 86 89 
3 88 89 90 
3 88 90 91 
3 91 90 92 
3 91 92 93 
3 94 71 95 
3 71 94 69 
3 95 73 96 
3 73 95 71 
3 97 73 74 
3 73 97 96 
3 98 74 77 
3 74 98 97 
3 99 77 79 
3 77 99 98 
3 100 79 81 
3 79 100 99 
3 99 100 101 
3 102 81 83 
3 81 102 100 
3 103 83 85 
3 83 103 102 
3 104 85 87 
3 85 104 103 
3 88 104 87 
3 104 88 105 
3 91 105 88 
3 105 91 106 
3 93 106 91 
3 106 93 107 
3 92 107 93 
3 107 92 108 
3 90 108 92 
3 108 90 109 
3 89 109 90 
3 109 89 110 
3 86 110 89 
3 110 86 111 
3 112 86 84 
3 86 112 111 
3 113 84 82 
3 84 113 112 
3 114 82 80 
3 82 114 113 
3 115 80 78 
3 80 115 114 
3 114 115 116 
3 117 78 76 
3 78 117 115 
3 118 76 75 
3 76 118 117 
3 119 75 72 
3 75 119 118 
3 119 70 120 
3 70 119 72 
3 120 66 121 
3 66 120 70 
3 121 68 122 
3 68 121 66 
3 122 67 123 
3 67 122 68 
3 123 69 94 
3 69 123 67 
3 101 124 99 
3 124 101 125 
3 125 101 100 
3 125 100 126 
3 126 100 127 
3 127 100 128 
3 128 100 114 
3 114 100 113 
3 113 100 102 
3 113 102 112 
3 112 102 103 
3 112 103 111 
3 111 103 104 
3 111 104 105 
3 111 105 110 
3 110 105 109 
3 109 105 106 
3 109 106 108 
3 108 106 107 
3 115 129 116 
3 129 115 130 
3 116 129 128 
3 116 128 114 
3 123 121 122 
3 121 123 94 
3 121 94 120 
3 120 94 95 
3 120 95 119 
3 119 95 96 
3 119 96 97 
3 119 97 118 
3 118 97 117 
3 117 97 98 
3 117 98 115 
3 115 98 99 
3 115 99 130 
3 130 99 131 
3 130 131 127 
3 131 99 124 
3 127 131 126 
3 132 133 134 
3 133 132 135 
3 133 126 131 
3 126 133 135 
3 133 124 134 
3 124 133 131 
3 132 124 125 
3 124 132 134 
3 126 132 125 
3 132 126 135 
3 136 137 138 
3 137 136 139 
3 137 128 129 
3 128 137 139 
3 137 130 138 
3 130 137 129 
3 136 130 127 
3 130 136 138 
3 128 136 127 
3 136 128 139 
