ply
format ascii 1.0
comment VCGLIB generated
element vertex 120
property float x
property float y
property float z
element face 240
property list uchar int vertex_indices
end_header
10.6875 4.852939e-24 -1.110223e-16 
10.32333 1.4375 -2.766129 
10.32333 1.209113e-07 -2.766129 
10.6875 1.4375 6.283512e-08 
9.255646 1.4375 -5.34375 
9.255646 2.335827e-07 -5.34375 
7.557203 1.4375 -7.557204 
7.557203 3.303359e-07 -7.557204 
5.34375 4.045772e-07 -9.255647 
5.34375 1.4375 -9.255647 
2.766128 4.512472e-07 -10.32333 
2.766128 1.4375 -10.32333 
6.661338e-16 4.671654e-07 -10.6875 
6.661338e-16 1.4375 -10.6875 
-2.766128 4.512472e-07 -10.32333 
-2.766128 1.4375 -10.32333 
-5.34375 4.045772e-07 -9.255647 
-5.34375 1.4375 -9.255647 
-7.557203 3.303359e-07 -7.557204 
-7.557203 1.4375 -7.557204 
-9.255646 1.4375 -5.34375 
-9.255646 2.335827e-07 -5.34375 
-10.32333 1.4375 -2.766129 
-10.32333 1.209113e-07 -2.766129 
-10.6875 1.4375 6.283512e-08 
-10.6875 5.823526e-23 -1.332268e-15 
-10.32333 1.4375 2.766129 
-10.32333 -1.209113e-07 2.766129 
-9.255646 1.4375 5.34375 
-9.255646 -2.335827e-07 5.34375 
-7.557203 1.4375 7.557204 
-7.557203 -3.303359e-07 7.557204 
-5.34375 -4.045772e-07 9.255647 
-5.34375 1.4375 9.255647 
-2.766128 -4.512472e-07 10.32333 
-2.766128 1.4375 10.32333 
-1.776357e-15 -4.671654e-07 10.6875 
-1.776357e-15 1.4375 10.6875 
2.766128 -4.512472e-07 10.32333 
2.766128 1.4375 10.32333 
5.34375 -4.045772e-07 9.255647 
5.34375 1.4375 9.255647 
7.557203 -3.303359e-07 7.557204 
7.557203 1.4375 7.557204 
9.255646 1.4375 5.34375 
9.255646 -2.335827e-07 5.34375 
10.32333 1.4375 2.766129 
10.32333 -1.209113e-07 2.766129 
2.414795e-14 1.437504 -85.63696 
-22.16447 1.437504 -82.71895 
22.16447 1.437504 -82.71895 
22.16447 1.437496 82.71895 
42.81847 1.437497 74.16378 
42.81847 1.437503 -74.16378 
60.55447 1.437497 60.55447 
60.55447 1.437503 -60.55447 
74.16377 1.437498 42.81848 
74.16377 1.437502 -42.81848 
82.71894 1.437499 22.16447 
82.71894 1.437501 -22.16447 
85.63695 1.4375 6.283512e-08 
-82.71894 1.437501 -22.16447 
-82.71894 1.437499 22.16447 
-85.63695 1.4375 6.283515e-08 
-74.16377 1.437502 -42.81848 
-74.16377 1.437498 42.81848 
-60.55447 1.437503 -60.55447 
-60.55447 1.437497 60.55447 
-42.81847 1.437503 -74.16378 
-42.81847 1.437497 74.16378 
-22.16447 1.437496 82.71895 
-1.584227e-14 1.437496 85.63696 
-82.71894 2.062499 22.16447 
-82.71894 2.062501 -22.16447 
-85.63695 2.0625 9.015476e-08 
-74.16377 2.062502 -42.81848 
-74.16377 2.062498 42.81848 
-60.55447 2.062503 -60.55447 
-60.55447 2.062497 60.55447 
-42.81847 2.062503 -74.16378 
-42.81847 2.062497 74.16378 
-22.16447 2.062504 -82.71895 
-22.16447 2.062496 82.71895 
-1.584227e-14 2.062496 85.63696 
-10.6875 2.0625 9.015474e-08 
-10.32333 2.0625 2.766129 
-9.255646 2.0625 5.34375 
-7.557203 2.0625 7.557204 
-5.34375 2.0625 9.255647 
-2.766128 2.0625 10.32333 
-1.776357e-15 2.0625 10.6875 
22.16447 2.062496 82.71895 
2.766128 2.0625 10.32333 
5.34375 2.0625 9.255647 
7.557203 2.0625 7.557204 
9.255646 2.0625 5.34375 
10.32333 2.0625 2.766129 
10.6875 2.0625 9.015474e-08 
2.414795e-14 2.062504 -85.63696 
-10.32333 2.0625 -2.766129 
-9.255646 2.0625 -5.34375 
-7.557203 2.0625 -7.557204 
-5.34375 2.0625 -9.255647 
-2.766128 2.0625 -10.32333 
6.661338e-16 2.0625 -10.6875 
2.766128 2.0625 -10.32333 
22.16447 2.062504 -82.71895 
5.34375 2.0625 -9.255647 
7.557203 2.0625 -7.557204 
9.255646 2.0625 -5.34375 
10.32333 2.0625 -2.766129 
42.81847 2.062497 74.16378 
42.81847 2.062503 -74.16378 
60.55447 2.062497 60.55447 
60.55447 2.062503 -60.55447 
74.16377 2.062498 42.81848 
74.16377 2.062502 -42.81848 
82.71894 2.062499 22.16447 
82.71894 2.062501 -22.16447 
85.63695 2.0625 9.015474e-08 
3 0 1 2 
3 1 0 3 
3 2 4 5 
3 4 2 1 
3 5 6 7 
3 6 5 4 
3 8 6 9 
3 6 8 7 
3 10 9 11 
3 9 10 8 
3 12 11 13 
3 11 12 10 
3 14 13 15 
3 13 14 12 
3 16 15 17 
3 15 16 14 
3 18 17 19 
3 17 18 16 
3 20 18 19 
3 18 20 21 
3 22 21 20 
3 21 22 23 
3 24 23 22 
3 23 24 25 
3 26 25 24 
3 25 26 27 
3 28 27 26 
3 27 28 29 
3 30 29 28 
3 29 30 31 
3 32 30 33 
3 30 32 31 
3 34 33 35 
3 33 34 32 
3 36 35 37 
3 35 36 34 
3 38 37 39 
3 37 38 36 
3 40 39 41 
3 39 40 38 
3 42 41 43 
3 41 42 40 
3 42 44 45 
3 44 42 43 
3 45 46 47 
3 46 45 44 
3 47 3 0 
3 3 47 46 
3 48 24 49 
3 24 48 22 
3 22 48 20 
3 20 48 19 
3 19 48 17 
3 17 48 15 
3 15 48 13 
3 13 48 11 
3 11 48 50 
3 11 50 9 
3 9 50 6 
3 6 50 4 
3 4 50 1 
3 1 50 3 
3 3 50 51 
3 51 50 52 
3 52 50 53 
3 52 53 54 
3 54 53 55 
3 54 55 56 
3 56 55 57 
3 56 57 58 
3 58 57 59 
3 58 59 60 
3 61 62 63 
3 62 61 64 
3 62 64 65 
3 65 64 66 
3 65 66 67 
3 67 66 68 
3 67 68 69 
3 69 68 49 
3 69 49 70 
3 70 49 71 
3 71 49 24 
3 71 24 26 
3 71 26 28 
3 71 28 30 
3 71 30 33 
3 71 33 35 
3 71 35 37 
3 71 37 51 
3 51 37 39 
3 51 39 41 
3 51 41 43 
3 51 43 44 
3 51 44 46 
3 51 46 3 
3 72 73 74 
3 73 72 75 
3 75 72 76 
3 75 76 77 
3 77 76 78 
3 77 78 79 
3 79 78 80 
3 79 80 81 
3 81 80 82 
3 81 82 83 
3 81 83 84 
3 84 83 85 
3 85 83 86 
3 86 83 87 
3 87 83 88 
3 88 83 89 
3 89 83 90 
3 90 83 91 
3 90 91 92 
3 92 91 93 
3 93 91 94 
3 94 91 95 
3 95 91 96 
3 96 91 97 
3 84 98 81 
3 98 84 99 
3 98 99 100 
3 98 100 101 
3 98 101 102 
3 98 102 103 
3 98 103 104 
3 98 104 105 
3 98 105 106 
3 106 105 107 
3 106 107 108 
3 106 108 109 
3 106 109 110 
3 106 110 97 
3 106 97 91 
3 106 91 111 
3 106 111 112 
3 112 111 113 
3 112 113 114 
3 114 113 115 
3 114 115 116 
3 116 115 117 
3 116 117 118 
3 118 117 119 
3 61 75 64 
3 75 61 73 
3 64 77 66 
3 77 64 75 
3 68 77 79 
3 77 68 66 
3 49 79 81 
3 79 49 68 
3 48 81 98 
3 81 48 49 
3 50 98 106 
3 98 50 48 
3 53 106 112 
3 106 53 50 
3 55 112 114 
3 112 55 53 
3 116 55 114 
3 55 116 57 
3 118 57 116 
3 57 118 59 
3 119 59 118 
3 59 119 60 
3 117 60 119 
3 60 117 58 
3 115 58 117 
3 58 115 56 
3 113 56 115 
3 56 113 54 
3 52 113 111 
3 113 52 54 
3 51 111 91 
3 111 51 52 
3 71 91 83 
3 91 71 51 
3 70 83 82 
3 83 70 71 
3 69 82 80 
3 82 69 70 
3 67 80 78 
3 80 67 69 
3 67 76 65 
3 76 67 78 
3 65 72 62 
3 72 65 76 
3 62 74 63 
3 74 62 72 
3 63 73 61 
3 73 63 74 
3 46 97 3 
3 97 46 96 
3 3 110 1 
3 110 3 97 
3 1 109 4 
3 109 1 110 
3 4 108 6 
3 108 4 109 
3 9 108 107 
3 108 9 6 
3 11 107 105 
3 107 11 9 
3 13 105 104 
3 105 13 11 
3 15 104 103 
3 104 15 13 
3 17 103 102 
3 103 17 15 
3 19 102 101 
3 102 19 17 
3 100 19 101 
3 19 100 20 
3 99 20 100 
3 20 99 22 
3 84 22 99 
3 22 84 24 
3 85 24 84 
3 24 85 26 
3 86 26 85 
3 26 86 28 
3 87 28 86 
3 28 87 30 
3 33 87 88 
3 87 33 30 
3 35 88 89 
3 88 35 33 
3 37 89 90 
3 89 37 35 
3 39 90 92 
3 90 39 37 
3 41 92 93 
3 92 41 39 
3 43 93 94 
3 93 43 41 
3 43 95 44 
3 95 43 94 
3 44 96 46 
3 96 44 95 
